<svg width="201" height="35" viewBox="0 0 201 35" fill="none" xmlns="http://www.w3.org/2000/svg">
<g clip-path="url(#clip0_1_3195)">
<g clip-path="url(#clip1_1_3195)">
<path d="M18.0388 23.3753C14.5971 23.3753 11.8043 20.5847 11.8043 17.1408C11.8043 13.6969 14.5949 10.9063 18.0388 10.9063C20.7323 10.9063 23.0269 12.6137 23.8971 15.0075L34.1502 11.2763C31.7564 4.69863 25.4475 0 18.0388 0C8.57132 0 0.895996 7.67533 0.895996 17.1429C0.895996 26.6104 8.57132 34.2857 18.0388 34.2857C25.4454 34.2857 31.7564 29.5871 34.1523 23.0073L23.8993 19.2761C23.029 21.6699 20.7344 23.3774 18.0409 23.3774" fill="#F2167D"/>
<path d="M25.652 18.6713L21.4517 17.1437L25.652 15.6161V18.6713Z" fill="white"/>
<path d="M35.6121 18.6713L31.4116 17.1437L35.6121 15.6161V18.6713Z" fill="white"/>
<path d="M35.6121 15.0394L31.4116 13.5119L35.6121 11.9822V15.0394Z" fill="white"/>
<path d="M35.6121 22.2963L31.4116 20.7687L35.6121 19.241V22.2963Z" fill="white"/>
<path d="M30.6321 16.843L26.4316 15.3154L30.6321 13.7857V16.843Z" fill="white"/>
<path d="M30.6321 20.4858L26.4316 18.9562L30.6321 17.4286V20.4858Z" fill="white"/>
<path d="M67.6802 21.1535C67.4239 22.243 66.9856 23.26 66.3655 24.2006C65.7454 25.141 64.9763 25.9638 64.0564 26.6687C63.1366 27.3736 62.0783 27.9255 60.8814 28.3203C59.6824 28.7152 58.4008 28.9115 57.0323 28.9115C55.1926 28.9115 53.5491 28.5911 52.096 27.9503C50.6407 27.3095 49.4066 26.4475 48.3916 25.3685C47.3746 24.2873 46.5953 23.0387 46.0496 21.6186C45.5039 20.1965 45.231 18.6957 45.231 17.1122C45.231 15.5288 45.4914 14.1294 46.0164 12.7175C46.5394 11.3077 47.2982 10.0571 48.2924 8.9677C49.2867 7.87625 50.4835 7.00598 51.8831 6.35277C53.2825 5.69954 54.87 5.37499 56.6457 5.37499C58.3139 5.37499 59.792 5.60446 61.0859 6.06336C62.3779 6.52226 63.4839 7.14448 64.4038 7.92173C65.3236 8.70311 66.0554 9.62092 66.6011 10.6814C67.1448 11.7398 67.5044 12.8767 67.6761 14.0963H63.796C63.6679 13.3253 63.4156 12.6101 63.0415 11.9465C62.6673 11.2829 62.196 10.7124 61.6297 10.2328C61.0633 9.75115 60.3996 9.3708 59.641 9.09379C58.8824 8.8168 58.041 8.67624 57.1233 8.67624C55.8395 8.67624 54.6903 8.91395 53.6753 9.38113C52.6583 9.85245 51.8087 10.4788 51.1244 11.256C50.4423 12.0374 49.9171 12.9366 49.5534 13.9515C49.1896 14.9687 49.0076 16.0187 49.0076 17.1102C49.0076 18.2657 49.1937 19.3551 49.5699 20.3805C49.9441 21.4078 50.4878 22.3112 51.205 23.0905C51.9202 23.8719 52.8091 24.4858 53.8675 24.9365C54.9259 25.385 56.1372 25.6103 57.5057 25.6103C58.1465 25.6103 58.7935 25.4966 59.4467 25.2734C60.1 25.048 60.7015 24.7379 61.2576 24.3432C61.8136 23.9463 62.2994 23.477 62.717 22.9313C63.1345 22.3856 63.4384 21.7923 63.6306 21.1514H67.6719L67.6802 21.1535Z" fill="white"/>
<path d="M77.1082 28.755C75.9113 28.755 74.8302 28.5462 73.8689 28.1307C72.9078 27.7111 72.085 27.1406 71.4008 26.415C70.7166 25.6873 70.1873 24.8543 69.8133 23.9137C69.4391 22.9731 69.251 21.9686 69.251 20.8998C69.251 19.8311 69.437 18.8513 69.8133 17.9024C70.1873 16.9515 70.7166 16.1123 71.4008 15.3847C72.085 14.6591 72.9078 14.0865 73.8689 13.6689C74.8302 13.2534 75.9113 13.0447 77.1082 13.0447C78.305 13.0447 79.3903 13.2534 80.3618 13.6689C81.3334 14.0886 82.1686 14.6591 82.8631 15.3847C83.5557 16.1123 84.093 16.9515 84.4651 17.9024C84.8393 18.8513 85.0274 19.8538 85.0274 20.8998C85.0274 21.9458 84.8414 22.9731 84.4651 23.9137C84.091 24.8563 83.5557 25.6894 82.8631 26.415C82.1686 27.1426 81.3334 27.7131 80.3618 28.1307C79.3903 28.5462 78.305 28.755 77.1082 28.755ZM77.1082 25.6439C77.7718 25.6439 78.3753 25.5158 78.919 25.2594C79.4647 25.0031 79.9298 24.6621 80.3143 24.232C80.6989 23.8062 80.9985 23.3039 81.2135 22.7251C81.4264 22.1483 81.536 21.5385 81.536 20.8977C81.536 20.2569 81.4286 19.6471 81.2135 19.0704C81.0006 18.4936 80.7009 17.9913 80.3143 17.5634C79.9298 17.1355 79.4647 16.7923 78.919 16.536C78.3753 16.2798 77.7697 16.1515 77.1082 16.1515C76.4467 16.1515 75.8451 16.2798 75.3118 16.536C74.7785 16.7923 74.3175 17.1355 73.9351 17.5634C73.5506 17.9913 73.255 18.4936 73.0525 19.0704C72.8498 19.6491 72.7465 20.2569 72.7465 20.8977C72.7465 21.5385 72.8478 22.1483 73.0525 22.7251C73.255 23.3039 73.5506 23.8062 73.9351 24.232C74.3196 24.6621 74.7785 25.0031 75.3118 25.2594C75.8451 25.5158 76.4446 25.6439 77.1082 25.6439Z" fill="white"/>
<path d="M90.9597 5.91965H87.4663V28.3667H90.9597V5.91965Z" fill="white"/>
<path d="M98.5156 5.91965H95.02V28.3667H98.5156V5.91965Z" fill="white"/>
<path d="M112.369 18.8823C112.262 18.0698 111.948 17.4126 111.423 16.9102C110.9 16.4079 110.04 16.1577 108.841 16.1577C108.156 16.1577 107.569 16.2859 107.077 16.5423C106.583 16.7986 106.168 17.1458 105.825 17.5862C105.484 18.0245 105.233 18.5267 105.072 19.0931C104.911 19.6595 104.83 20.2631 104.83 20.9039C104.83 21.5448 104.911 22.1545 105.072 22.7313C105.233 23.3101 105.484 23.8125 105.825 24.2383C106.168 24.6682 106.606 25.0093 107.139 25.2656C107.673 25.5219 108.316 25.6501 109.064 25.6501C110.091 25.6501 110.844 25.4351 111.325 25.0093C111.807 24.5814 112.165 23.9943 112.4 23.244H115.895C115.767 24.015 115.532 24.7365 115.191 25.4082C114.847 26.0822 114.385 26.6713 113.796 27.1736C113.209 27.6759 112.504 28.0666 111.681 28.3437C110.856 28.6206 109.901 28.7611 108.81 28.7611C107.592 28.7611 106.517 28.5421 105.587 28.1017C104.657 27.6656 103.877 27.0806 103.245 26.355C102.614 25.6273 102.139 24.7943 101.819 23.8537C101.496 22.9133 101.337 21.9293 101.337 20.9039C101.337 19.8786 101.496 18.9216 101.819 17.9686C102.139 17.0198 102.614 16.1805 103.245 15.4509C103.875 14.7253 104.651 14.1423 105.57 13.7041C106.488 13.2658 107.559 13.0447 108.777 13.0447C109.994 13.0447 111.038 13.2183 111.904 13.5593C112.768 13.9025 113.485 14.3449 114.052 14.8906C114.619 15.4363 115.046 16.0565 115.333 16.7511C115.621 17.4456 115.798 18.1567 115.862 18.8823H112.367H112.369Z" fill="white"/>
<path d="M127.379 28.3729C127.103 28.4163 126.727 28.4598 126.257 28.501C125.786 28.5445 125.296 28.5651 124.783 28.5651C124.355 28.5651 123.864 28.528 123.309 28.4535C122.753 28.3791 122.224 28.1703 121.722 27.8293C121.217 27.4882 120.795 26.9631 120.455 26.2582C120.112 25.5534 119.941 24.5694 119.941 23.3083V16.3483H117.408V13.4315H119.941V8.91072H123.435V13.4315H126.867V16.3483H123.435V22.4837C123.435 23.1245 123.483 23.635 123.58 24.0175C123.675 24.4019 123.82 24.6934 124.012 24.896C124.204 25.0985 124.434 25.2329 124.7 25.297C124.969 25.361 125.273 25.3921 125.615 25.3921H126.577C126.939 25.3921 127.208 25.361 127.379 25.297V28.375V28.3729Z" fill="white"/>
<path d="M129.591 7.97341C129.591 7.24577 129.844 6.63183 130.346 6.12744C130.848 5.62719 131.452 5.37499 132.157 5.37499C132.861 5.37499 133.498 5.62719 134 6.12744C134.503 6.63183 134.755 7.24577 134.755 7.97341C134.755 8.70104 134.503 9.28191 134 9.78423C133.498 10.2865 132.884 10.5367 132.157 10.5367C131.429 10.5367 130.848 10.2865 130.346 9.78423C129.844 9.28191 129.591 8.6783 129.591 7.97341ZM130.424 13.4245H133.919V28.3679H130.424V13.4245Z" fill="white"/>
<path d="M139.683 13.4197L143.788 23.3606L147.957 13.4197H151.707L144.941 28.3631H142.602L135.931 13.4197H139.683Z" fill="white"/>
</g>
</g>
<defs>
<clipPath id="clip0_1_3195">
<rect width="200.033" height="34.2857" fill="white"/>
</clipPath>
<clipPath id="clip1_1_3195">
<rect width="152" height="34.2857" fill="white" transform="translate(0.0166016)"/>
</clipPath>
</defs>
</svg>
