<svg width="241" height="50" viewBox="0 0 241 50" fill="none" xmlns="http://www.w3.org/2000/svg">
<g clip-path="url(#clip0_1_5729)">
<path d="M25.2828 32.8478C23.8428 32.8487 22.4301 32.4545 21.1987 31.708C19.9673 30.9616 18.9642 29.8915 18.2989 28.6145C17.6335 27.3374 17.3313 25.9023 17.4251 24.4653C17.519 23.0284 18.0053 21.6447 18.8312 20.4651C19.657 19.2854 20.7907 18.355 22.1088 17.775C23.4269 17.1951 24.8788 16.988 26.3064 17.1762C27.7341 17.3644 29.0828 17.9407 30.2055 18.8424C31.3283 19.744 32.1821 20.9365 32.6741 22.2899L45.6523 17.5797C43.9121 12.7997 40.5434 8.78564 36.1379 6.24244C31.7323 3.69925 26.5716 2.78954 21.562 3.67308C16.5524 4.55662 12.0142 7.17691 8.74447 11.0738C5.47474 14.9707 3.6825 19.895 3.6825 24.9819C3.6825 30.0688 5.47474 34.9931 8.74447 38.89C12.0142 42.7869 16.5524 45.4071 21.562 46.2907C26.5716 47.1742 31.7323 46.2645 36.1379 43.7213C40.5434 41.1781 43.9121 37.1641 45.6523 32.3841L32.6741 27.6667C32.1234 29.1848 31.1185 30.4966 29.796 31.4236C28.4736 32.3506 26.8978 32.8479 25.2828 32.8478Z" fill="#F2167D"/>
<path d="M34.8914 26.9058L29.587 24.9783L34.8914 23.0507V26.9058Z" fill="#1B0273"/>
<path d="M47.4639 26.9058L42.1595 24.9783L47.4639 23.0507V26.9058Z" fill="#1B0273"/>
<path d="M47.4639 22.3333L42.1595 20.4058L47.4639 18.4783V22.3333Z" fill="#1B0273"/>
<path d="M47.4639 31.4855L42.1595 29.5507L47.4639 27.6232V31.4855Z" fill="#1B0273"/>
<path d="M41.1813 24.6087L35.877 22.6812L41.1813 20.7536V24.6087Z" fill="#1B0273"/>
<path d="M41.1813 29.1957L35.877 27.2681L41.1813 25.3406V29.1957Z" fill="#1B0273"/>
<path d="M86.9929 30.058C86.6708 31.4284 86.109 32.731 85.3334 33.9058C84.5483 35.0992 83.5685 36.1525 82.4349 37.0217C81.2231 37.9468 79.8632 38.6598 78.4132 39.1304C74.7728 40.2678 70.8498 40.1012 67.3189 38.6594C65.5563 37.9033 63.966 36.7963 62.645 35.4058C61.3577 34.0357 60.353 32.4253 59.6885 30.6667C58.3293 27.0483 58.3164 23.0618 59.6523 19.4348C60.3028 17.6846 61.2873 16.0776 62.5508 14.7029C63.8774 13.2358 65.5028 12.0699 67.3178 11.2837C69.1327 10.4975 71.095 10.1092 73.0726 10.1449C74.9757 10.1128 76.8702 10.4069 78.674 11.0145C80.2015 11.5354 81.621 12.3311 82.8624 13.3623C84.0091 14.3291 84.9524 15.5138 85.6378 16.8478C86.3306 18.1978 86.7888 19.6558 86.9929 21.1594H82.0943C81.9452 20.2056 81.6287 19.2857 81.1595 18.442C80.6988 17.6175 80.0952 16.8814 79.3769 16.2681C78.6347 15.6387 77.7855 15.1479 76.8697 14.8188C75.8483 14.458 74.7717 14.2789 73.6885 14.2899C72.1915 14.265 70.7072 14.5693 69.3407 15.1812C68.1129 15.7349 67.0164 16.5425 66.1233 17.5507C65.2514 18.5471 64.5776 19.7005 64.1378 20.9493C63.6799 22.2306 63.447 23.5814 63.4494 24.942C63.4469 26.3483 63.6922 27.7441 64.174 29.0652C64.6255 30.3325 65.3279 31.4958 66.2392 32.4855C67.1663 33.4998 68.3007 34.303 69.5653 34.8406C71.0243 35.4285 72.5868 35.7168 74.1595 35.6884C74.9941 35.6834 75.8219 35.5389 76.6088 35.2609C77.4266 34.9737 78.1981 34.5684 78.8987 34.058C79.5979 33.5592 80.2183 32.9583 80.7392 32.2754C81.2598 31.6048 81.6505 30.843 81.8914 30.029L86.9929 30.058Z" fill="#1B0273"/>
<path d="M98.8914 39.6522C97.4891 39.6742 96.0975 39.4053 94.8044 38.8623C93.6267 38.3608 92.5657 37.6206 91.6885 36.6884C90.8262 35.7754 90.1473 34.7053 89.6885 33.5362C88.7417 31.0934 88.7417 28.3849 89.6885 25.942C90.1469 24.7663 90.8257 23.689 91.6885 22.7681C92.5657 21.8359 93.6267 21.0957 94.8044 20.5942C96.0975 20.0513 97.4891 19.7823 98.8914 19.8043C100.301 19.7826 101.699 20.0515 103 20.5942C104.191 21.0945 105.267 21.8345 106.16 22.7681C107.034 23.6844 107.72 24.7625 108.181 25.942C109.128 28.3849 109.128 31.0934 108.181 33.5362C107.72 34.7091 107.033 35.7801 106.16 36.6884C105.267 37.622 104.191 38.362 103 38.8623C101.699 39.405 100.301 39.6739 98.8914 39.6522ZM98.8914 35.7246C99.6814 35.7363 100.464 35.5704 101.181 35.2391C101.851 34.9327 102.451 34.4911 102.942 33.942C103.439 33.3886 103.823 32.7437 104.073 32.0435C104.613 30.5524 104.613 28.9186 104.073 27.4275C103.821 26.7281 103.437 26.0835 102.942 25.529C102.451 24.9799 101.851 24.5383 101.181 24.2319C100.464 23.9006 99.6814 23.7347 98.8914 23.7464C98.1083 23.7337 97.3326 23.8998 96.6233 24.2319C95.962 24.5425 95.3704 24.9837 94.8841 25.529C94.3909 26.081 94.0138 26.7267 93.7754 27.4275C93.2535 28.9219 93.2535 30.5491 93.7754 32.0435C94.0113 32.74 94.3851 33.3819 94.8743 33.931C95.3636 34.48 95.9584 34.9249 96.6233 35.2391C97.3326 35.5713 98.1083 35.7373 98.8914 35.7246Z" fill="#1B0273"/>
<path d="M116.384 10.8333H111.971V39.1667H116.384V10.8333Z" fill="#1B0273"/>
<path d="M125.913 10.8333H121.5V39.1667H125.913V10.8333Z" fill="#1B0273"/>
<path d="M143.399 27.1884C143.307 26.2423 142.884 25.3592 142.203 24.6957C141.544 24.0652 140.457 23.7464 138.949 23.7464C138.179 23.7238 137.415 23.8905 136.725 24.2319C136.106 24.5474 135.566 24.9982 135.145 25.5507C134.707 26.1151 134.384 26.7603 134.196 27.4493C133.989 28.1948 133.886 28.9654 133.891 29.7391C133.888 30.5175 133.99 31.2927 134.196 32.0435C134.377 32.7354 134.7 33.382 135.145 33.942C135.589 34.498 136.158 34.9422 136.804 35.2391C137.567 35.5821 138.397 35.7481 139.232 35.7246C140.249 35.8091 141.263 35.5235 142.087 34.9203C142.748 34.319 143.229 33.5465 143.478 32.6884H147.826C147.668 33.6386 147.367 34.5596 146.935 35.4203C146.513 36.2811 145.924 37.0495 145.203 37.6812C144.411 38.3292 143.504 38.821 142.529 39.1304C141.357 39.4983 140.134 39.6745 138.906 39.6522C137.506 39.6806 136.118 39.3985 134.841 38.8261C133.715 38.3147 132.708 37.5744 131.884 36.6522C131.083 35.7278 130.472 34.654 130.087 33.4928C129.679 32.296 129.474 31.0397 129.478 29.7754C129.477 28.5137 129.683 27.2604 130.087 26.0652C130.466 24.886 131.077 23.7945 131.884 22.8551C132.7 21.9341 133.7 21.1936 134.819 20.6812C136.089 20.1014 137.474 19.8165 138.87 19.8478C140.215 19.8165 141.554 20.0352 142.819 20.4928C143.822 20.8733 144.742 21.4441 145.529 22.1739C146.224 22.8366 146.774 23.636 147.145 24.5217C147.504 25.3808 147.729 26.29 147.812 27.2174L143.399 27.1884Z" fill="#1B0273"/>
<path d="M162.319 39.1667C161.971 39.2174 161.5 39.2754 160.906 39.3333C160.312 39.3913 159.689 39.413 159.044 39.413C158.42 39.4056 157.798 39.3572 157.181 39.2681C156.459 39.1671 155.771 38.8964 155.174 38.4783C154.476 37.9693 153.926 37.2841 153.58 36.4928C153.09 35.317 152.868 34.0475 152.928 32.7754V23.9855H149.732V20.2899H152.928V14.6014H157.341V20.2899H161.689V23.9855H157.341V31.7319C157.323 32.3817 157.384 33.0314 157.522 33.6667C157.606 34.0778 157.796 34.46 158.073 34.7754C158.303 35.03 158.607 35.2072 158.942 35.2826C159.32 35.3684 159.707 35.4098 160.094 35.4058H161.312C161.652 35.4202 161.992 35.3786 162.319 35.2826V39.1667Z" fill="#1B0273"/>
<path d="M165.145 13.4203C165.142 12.8832 165.272 12.3538 165.523 11.879C165.774 11.4042 166.138 10.9987 166.584 10.6986C167.029 10.3985 167.542 10.2131 168.076 10.1588C168.611 10.1045 169.15 10.183 169.647 10.3874C170.143 10.5918 170.582 10.9156 170.923 11.3302C171.265 11.7448 171.498 12.2374 171.604 12.764C171.709 13.2907 171.682 13.8352 171.526 14.3491C171.371 14.8631 171.09 15.3306 170.71 15.7101C170.409 16.0203 170.047 16.2653 169.647 16.4298C169.246 16.5944 168.817 16.675 168.384 16.6667C167.525 16.6667 166.701 16.3254 166.094 15.7179C165.486 15.1105 165.145 14.2866 165.145 13.4275M166.196 20.3116H170.609V39.1522H166.196V20.3116Z" fill="#1B0273"/>
<path d="M177.877 20.3043L183.058 32.8551L188.326 20.3043H193.058L184.522 39.1667H181.565L173.145 20.3043H177.877Z" fill="#1B0273"/>
</g>
<defs>
<clipPath id="clip0_1_5729">
<rect width="240.58" height="50" fill="white"/>
</clipPath>
</defs>
</svg>
