<svg width="155" height="150" viewBox="0 0 155 150" fill="none" xmlns="http://www.w3.org/2000/svg">
<g clip-path="url(#clip0_1_493)">
<path d="M105.115 72.6825C105.115 88.2185 92.569 100.803 77.08 100.803C61.5911 100.803 49.045 88.2185 49.045 72.6825C49.045 60.5385 56.7378 50.1812 67.5027 46.2455L50.7229 2.30421e-06C21.1132 10.7975 -0.00332788 39.2543 -0.00332642 72.6825C-0.00332455 115.38 34.5113 150 77.08 150C119.649 150 154.163 115.38 154.163 72.6825C154.163 39.2802 133.021 10.8234 103.437 0L86.6573 46.2455C97.4222 50.1812 105.089 60.5127 105.089 72.6825" fill="#F2167D"/>
</g>
<defs>
<clipPath id="clip0_1_493">
<rect width="154.167" height="150" fill="white" transform="translate(-0.00332642)"/>
</clipPath>
</defs>
</svg>
