<svg width="21" height="20" viewBox="0 0 21 20" fill="none" xmlns="http://www.w3.org/2000/svg">
<path d="M15.0836 5.41406H15.0919M6.33365 1.66406H14.6669C16.9681 1.66406 18.8336 3.52954 18.8336 5.83073V14.1641C18.8336 16.4652 16.9681 18.3307 14.6669 18.3307H6.33365C4.03247 18.3307 2.16699 16.4652 2.16699 14.1641V5.83073C2.16699 3.52954 4.03247 1.66406 6.33365 1.66406ZM13.8336 9.4724C13.9365 10.1659 13.818 10.8742 13.4951 11.4966C13.1722 12.1189 12.6612 12.6236 12.035 12.9388C11.4087 13.254 10.699 13.3637 10.0068 13.2523C9.31459 13.141 8.67512 12.8141 8.17935 12.3184C7.68359 11.8226 7.35676 11.1831 7.24538 10.4909C7.13399 9.79869 7.24371 9.08897 7.55893 8.46271C7.87414 7.83644 8.37881 7.32551 9.00114 7.0026C9.62347 6.67968 10.3317 6.56122 11.0253 6.66406C11.7327 6.76897 12.3877 7.09862 12.8934 7.60432C13.3991 8.11002 13.7287 8.76496 13.8336 9.4724Z" stroke="black" stroke-width="2" stroke-linecap="round" stroke-linejoin="round"/>
</svg>
